<svg id="svg-defs" xmlns="http://www.w3.org/2000/svg" xmlns:xlink="http://www.w3.org/1999/xlink">
    <defs>
		<symbol id="chevron-down" xmlns="http://www.w3.org/2000/svg" viewBox="0 0 21.18 13.08">
			<path d="M2.49,0l8.1,8.08L18.69,0l2.49,2.49L10.59,13.08,0,2.49Z"/>
		</symbol>
		<symbol id="chevron-up" xmlns="http://www.w3.org/2000/svg" viewBox="0 0 21.18 13.08">
			<path d="M18.69,13.08,10.59,5l-8.1,8.08L0,10.59,10.59,0,21.18,10.59Z"/>
		</symbol>
		<symbol id="plus" xmlns="http://www.w3.org/2000/svg" viewBox="0 0 33.211 33.211">
			<path d="M0,0H33.211V33.211H0Z" fill="none"/><path d="M24.373,16.07h-8.3v8.3H13.3v-8.3H5V13.3h8.3V5H16.07v8.3h8.3Z" transform="translate(1.919 1.919)"/>
		</symbol>
		<symbol id="5-star" xmlns="http://www.w3.org/2000/svg" viewBox="0 0 238.546 41.428">
			<path d="M21.785.005l5.138 15.821h16.634L30.1 25.605l5.138 15.821-13.462-9.778L8.31 41.425l5.138-15.821L0 15.826h16.634z"/><path d="M70.521.004l5.138 15.821h16.634l-13.444 9.779 5.138 15.821-13.462-9.778-13.466 9.777 5.151-15.821-13.461-9.778h16.634z"/><path d="M119.275 0l5.138 15.821h16.632L127.583 25.6l5.138 15.821-13.462-9.778-13.462 9.778 5.138-15.821-13.46-9.779h16.634z"/><path d="M168.019.008l5.138 15.821h16.634l-13.457 9.779 5.138 15.821-13.462-9.778-13.448 9.778 5.138-15.821-13.466-9.779h16.634z"/><path d="M216.761.006l5.138 15.821h16.647l-13.462 9.778 5.138 15.821-13.462-9.778-13.462 9.778 5.138-15.821-13.462-9.778h16.634z"/>
		</symbol>
		<symbol id="facebook" xmlns="http://www.w3.org/2000/svg" viewBox="0 0 41.9 41.829">
			<g transform="translate(-158.4 4)"><g transform="translate(158.9 -3.5)"><path d="M37.78,41.079H31.389V26.026H27.2V20.2h4.331v-5.61A5.986,5.986,0,0,1,37.851,8.7H43.39v5.61H39.626c-1.7,0-1.775.213-1.775,1.633v4.331H43.39L42.751,26.1H37.709V41.079Z" transform="translate(-8.241 -2.877)" fill-rule="evenodd"/></g></g>
		</symbol>
		<symbol id="youtube" xmlns="http://www.w3.org/2000/svg" viewBox="0 0 53.898 37.974">
			<path d="M52.765,5.941a6.821,6.821,0,0,0-4.777-4.808C43.792,0,26.949,0,26.949,0S10.106,0,5.88,1.133A6.769,6.769,0,0,0,1.1,5.941C0,10.167,0,18.987,0,18.987s0,8.82,1.133,13.046A6.821,6.821,0,0,0,5.91,36.841c4.2,1.133,21.039,1.133,21.039,1.133s16.843,0,21.069-1.133A6.769,6.769,0,0,0,52.8,32.033c1.1-4.226,1.1-13.046,1.1-13.046S53.9,10.167,52.765,5.941ZM21.437,27.01V10.963l14.087,8.024Z"/>
		</symbol>
		<symbol id="warning" xmlns="http://www.w3.org/2000/svg" viewBox="0 0 24 24">
			<path d="M12.984 14.016v-4.031h-1.969v4.031h1.969zM12.984 18v-2.016h-1.969v2.016h1.969zM0.984 21l11.016-18.984 11.016 18.984h-22.031z"></path>
		</symbol>
		<symbol id="arrow" xmlns="http://www.w3.org/2000/svg" viewBox="0 0 20 20">
<path fill="currentColor" d="m16.172 9l-6.071-6.071l1.414-1.414L20 10l-.707.707l-7.778 7.778l-1.414-1.414L16.172 11H0V9z"></path>
		</symbol>
    </defs>
</svg>
