<?xml version="1.0" encoding="UTF-8"?>
<svg id="b" data-name="Layer 2" xmlns="http://www.w3.org/2000/svg" viewBox="0 0 752.26 383.09">
  <g id="c" data-name="Layer 1">
    <g>
      <rect x="338.71" y="53.6" width="19.87" height="19.87" style="fill: none; isolation: isolate; opacity: .35; stroke: #000; stroke-dasharray: 2.25 2.25; stroke-miterlimit: 10; stroke-width: 1.12px;"/>
      <rect x="411.8" y="53.6" width="19.87" height="19.87" style="fill: none; isolation: isolate; opacity: .35; stroke: #000; stroke-dasharray: 2.25 2.25; stroke-miterlimit: 10; stroke-width: 1.12px;"/>
      <rect x="265.62" y="53.6" width="19.87" height="19.87"/>
      <rect x="289.98" y="53.6" width="19.87" height="19.87"/>
      <rect x="314.35" y="53.6" width="19.87" height="19.87"/>
      <rect x="338.71" width="19.87" height="19.87"/>
      <rect x="363.07" y="53.6" width="19.87" height="19.87"/>
      <rect x="387.44" y="53.6" width="19.87" height="19.87"/>
      <rect x="411.8" y="19.49" width="19.87" height="19.87"/>
      <rect x="436.16" y="53.6" width="19.87" height="19.87"/>
      <rect x="460.53" y="53.6" width="19.87" height="19.87"/>
      <rect x="265.62" y="77.96" width="19.87" height="19.87"/>
      <rect x="289.98" y="77.96" width="19.87" height="19.87"/>
      <rect x="436.16" y="77.96" width="19.87" height="19.87"/>
      <rect x="460.53" y="77.96" width="19.87" height="19.87"/>
      <rect x="265.62" y="102.33" width="19.87" height="19.87"/>
      <rect x="314.35" y="102.33" width="19.87" height="19.87"/>
      <rect x="411.8" y="102.33" width="19.87" height="19.87"/>
      <rect x="460.53" y="102.33" width="19.87" height="19.87"/>
      <rect x="265.62" y="126.69" width="19.87" height="19.87"/>
      <rect x="338.71" y="126.69" width="19.87" height="19.87"/>
      <rect x="387.44" y="126.69" width="19.87" height="19.87"/>
      <rect x="460.53" y="126.69" width="19.87" height="19.87"/>
      <rect x="265.62" y="151.05" width="19.87" height="19.87"/>
      <rect x="363.07" y="151.05" width="19.87" height="19.87"/>
      <rect x="460.53" y="151.05" width="19.87" height="19.87"/>
      <rect x="265.62" y="175.41" width="19.87" height="19.87"/>
      <rect x="289.98" y="175.41" width="19.87" height="19.87"/>
      <rect x="314.35" y="175.41" width="19.87" height="19.87"/>
      <rect x="338.71" y="175.41" width="19.87" height="19.87"/>
      <rect x="363.07" y="175.41" width="19.87" height="19.87"/>
      <rect x="387.44" y="175.41" width="19.87" height="19.87"/>
      <rect x="411.8" y="175.41" width="19.87" height="19.87"/>
      <rect x="436.16" y="175.41" width="19.87" height="19.87"/>
      <rect x="460.53" y="175.41" width="19.87" height="19.87"/>
    </g>
    <polygon points="93.7 358.47 69.47 358.47 59.22 321.74 58.72 321.74 48.35 358.47 24.11 358.47 0 292.51 26.74 292.51 36.73 331.49 37.61 331.49 47.98 292.51 72.71 292.51 82.71 331.49 83.58 331.49 93.7 292.51 117.94 292.51 93.7 358.47"/>
    <path d="M162.05,291.01c20.14.22,27.87,14.42,27.86,34.61h0c.02,20.11-7.8,34.16-27.86,34.36-7.66,0-13.83-2.5-18.49-7.5h0v30.61h-24.86v-90.58h20.24l2.12,9.37c4.83-7.25,11.83-10.87,20.99-10.87ZM154.3,309.37c-7.99-.04-10.96,6.52-10.99,13.99h0c-.5,8.11,1.12,18.43,10.99,18.24,7.16,0,10.74-4.29,10.74-12.87h0c.58-8.88-.24-20.03-10.74-19.37h0Z"/>
    <path d="M317.35,291.01c15.55-.05,22.48,9.57,22.49,24.74h0v42.73h-24.86v-39.73c.02-5.18-2.51-9.4-7.87-9.37-5.8-.13-9.96,4.72-9.87,10.37h0v38.73h-24.86v-39.73c.02-5.18-2.51-9.4-7.87-9.37-5.8-.13-9.96,4.72-9.87,10.37h0v38.73h-24.86v-65.97h20.37l1.62,9.87c5.01-7.12,14.22-11.45,22.99-11.37,9.91,0,16.58,3.79,19.99,11.37h0c5.06-6.97,13.97-11.44,22.61-11.37Z"/>
    <path d="M380.44,291.01c16.41.42,33.79,3.47,34.11,21.49h0v25.74c0,2.61,1.18,4.91,4,4.87h4.5v14.37c-3.55,1.72-8.4,2.51-12.99,2.5-7.81-.08-15.12-1.73-18.37-8.25h0c-7.12,5.51-14.7,8.31-24.36,8.25-15.49,0-23.24-6.16-23.24-18.49h0c.48-24.23,25.25-22.74,45.6-23.49,1-6.5-2.66-11.47-9.62-11.12-4.14.1-9.44,1.03-9.5,5.75h0v.5h-24.49c-.08-.42-.12-1-.12-1.75h0c1.09-16.61,17.59-20.08,34.48-20.37ZM389.69,329.74c-9.62.49-19.07.17-20.74,8.5h0c0,4.16,2.83,6.25,8.5,6.25,5.46.11,12.27-3.32,12.24-9.12h0v-5.62Z"/>
    <rect x="425.17" y="267.89" width="24.86" height="16.87"/>
    <rect x="425.17" y="292.51" width="24.86" height="65.97"/>
    <rect x="459.9" y="267.89" width="24.86" height="90.58"/>
    <path d="M518.75,298.63c4.75-5.08,10.91-7.62,18.49-7.62,20.06.21,27.88,14.24,27.86,34.36h0c.01,20.19-7.73,34.39-27.86,34.61-9.16,0-16.16-3.62-20.99-10.87h0l-2.12,9.37h-20.24v-90.58h24.86v30.74ZM529.49,309.37c-8-.04-10.96,6.67-10.99,14.12h0c-.51,8.13,1.12,18.32,10.99,18.12,7.16,0,10.74-4.25,10.74-12.74h0c.58-8.92-.26-20.16-10.74-19.49h0Z"/>
    <rect x="571.1" y="267.89" width="24.86" height="90.58"/>
    <path d="M639.06,291.01c22.38-.05,37.41,11.49,37.23,34.48h0c.17,22.99-14.85,34.54-37.23,34.48-22.46.03-37.28-11.38-37.11-34.48h0c-.17-23.11,14.64-34.51,37.11-34.48ZM639.06,307.87c-8.16,0-12.24,4.71-12.24,14.12h0c-.59,10.11.24,21.65,12.24,21.11,8.25,0,12.37-4.66,12.37-13.99h0c.61-10.2-.28-21.77-12.37-21.24h0Z"/>
    <polygon points="727.52 324.12 752.26 358.47 723.27 358.47 710.78 337.74 710.28 337.74 697.66 358.47 670.05 358.47 695.41 323.49 672.55 292.51 701.78 292.51 712.28 310 712.78 310 723.27 292.51 750.76 292.51 727.52 324.12"/>
  </g>
</svg>