<?xml version="1.0" encoding="UTF-8"?>
<svg id="b" data-name="Layer 2" xmlns="http://www.w3.org/2000/svg" viewBox="0 0 1171.58 547.95">
  <g id="c" data-name="Layer 1">
    <path d="M689.69,87.11c-2.54,2.35-4.65,4.46-4.65,4.46-1.39.02-8.44,0-10.09,0h-7.8s-173.45-.02-173.45-.02c-1.14.01-4.28,0-5.04,0L396.62,12.79,381.93.03,537.95,0c4.47,0,6.07,3.03,8.65,5.29l11.99,10.5,5.17,4.56,19.45,17.29c.85.75,2.44,2.01,3.34,1.82.9-.2,2.48-1.31,3.3-2.05l9.89-8.91,4.81-4.17,9.77-8.22,10.87-9.57c2.52-2.22,6.1-6.21,10.06-6.49l134.73-.03,9.07.11,9.04-.1c.53,0,2.05,0,2.52,0,.05,0-5.22,4.61-5.22,4.61l-95.69,82.46Z" style="fill: #02ace9;"/>
    <path d="M632.99,285.34l-13.72-.03-8.14-.05-12.94.08-20.93-.03-14.1-.14-12.84.12-10.3-.03-11.5-.06-10.58.02-12.01.14h-35.8s-11.68-.06-11.68-.06l-13.49-.03-23.84-.06c-6.31-.02-11.97,1-18.59-.52l9.84-8.59,10.01-8.76,17.38-14.81,6.29-5.68,12.17-10.37,20.4-17.81,6.36-5.65,6.78-6,12.87-11.16,13.02-10.84,12.48-10.97c1.37-1.21,3.4-.6,4.55.46l4.8,4.4,11.62,10.1,10.89,9.34,17.78,15.19,6.84,5.72,5.98-5.17,12.85-11.1,16.47-14.19,15.25-13.41c.95-.84,2.5-2.24,3.51-2.28s2.51,1.48,3.51,2.34l30.21,25.98,8.28,7.42,7.36,6.2,14.87,12.85,14.51,12.54,6,5.11c2.44,2.07,4.6,3.67,6.73,6.04l36.23,31.34,1.55.97c.32.2-.99,1.13-1.47,1.54h-20.76s-11.42-.26-11.42-.26l-19.15-.03-13.58-.03-25.2.13-25.15.16-20.23-.09Z" style="fill: #fff;"/>
    <path d="M378.79,243.25v-4.25l.09-12.46v-11.88s.01-11.25.01-11.25v-12s.02-12,.02-12v-11.46s.02-11.89.02-11.89v-11.25s0-12.01,0-12.01v-11.34s0-11.89,0-11.89v-12.01s0-11.25,0-11.25l-.18-13.5.04-9.71.11-12.06-.12-8.75c1.69,1.48,3.22,2.6,4.69,3.92l8.28,7.37,12.75,11.28,8.62,7.16,8.2,7.53,12.01,10.51,17.28,14.87,15.43,13.82c1.4,1.25,4.85,4.07,4.85,4.07,0,0-.06,1.24-.06,2.76l.06,54.46c-1.57,2.66-4.04,4.66-6.36,6.62l-22.35,18.83-7.33,6.3-5.14,4.5-14.8,12.93-8.81,7.74-27.34,23.36v-17.04Z" style="fill: #02ace9;"/>
    <path d="M792.57,242.94l.09-6.55v-9.85s0-11.88,0-11.88v-11.25s-.01-12-.01-12v-12s-.02-11.46-.02-11.46v-11.89s-.01-11.25-.01-11.25v-12.01s0-11.34,0-11.34v-11.89s0-12.01,0-12.01v-11.25s.17-13.5.17-13.5l-.04-9.71-.11-12.06.03-8.75c-1.2,1.2-3.12,2.6-4.6,3.92l-8.28,7.37-12.75,11.28-8.62,7.16-8.2,7.53-12.01,10.51-17.28,14.87-15.43,13.82c-1.4,1.25-4.85,4.07-4.85,4.07,0,0,.06,1.24.06,2.76l-.06,54.46c1.57,2.66,4.04,4.66,6.36,6.62l22.35,18.83,7.33,6.3,5.14,4.5,14.8,12.93,8.81,7.74,27.25,24.45c0-6.85.39-12.22-.09-18.44Z" style="fill: #d9ecf7;"/>
    <line x1="785.38" y1="4.66" x2="689.69" y2="87.11" style="fill: #001b5f;"/>
    <line x1="488.38" y1="91.32" x2="396.62" y2="12.79" style="fill: #001b5f;"/>
    <polygon points="488.66 91.55 685.04 91.57 585.79 174.91 488.66 91.55" style="fill: #0274a5;"/>
    <g>
      <path d="M196,406.55l-39,139.6h-33l-26.2-99.4-27.4,99.4-32.8.2L0,406.55h30l24.6,108.4,28.4-108.4h31.2l26.8,107.8,24.8-107.8h30.2Z" style="fill: #fff;"/>
      <path d="M305.7,470.75c-3.53,6.53-9.07,11.8-16.6,15.8-7.53,4-17.03,6-28.5,6h-23.4v53.6h-28v-139.6h51.4c10.8,0,20,1.87,27.6,5.6,7.6,3.73,13.3,8.87,17.1,15.4,3.8,6.53,5.7,13.93,5.7,22.2,0,7.47-1.77,14.47-5.3,21ZM276.6,464.65c3.73-3.53,5.6-8.5,5.6-14.9,0-13.6-7.6-20.4-22.8-20.4h-22.2v40.6h22.2c7.73,0,13.47-1.77,17.2-5.3Z" style="fill: #fff;"/>
      <path d="M520.59,406.55v139.6h-28v-90.8l-37.4,90.8h-21.2l-37.6-90.8v90.8h-28v-139.6h31.8l44.4,103.8,44.4-103.8h31.6Z" style="fill: #fff;"/>
      <path d="M542.69,460.55c4.47-8.67,10.53-15.33,18.2-20,7.67-4.67,16.23-7,25.7-7,8.27,0,15.5,1.67,21.7,5,6.2,3.33,11.17,7.53,14.9,12.6v-15.8h28.2v110.8h-28.2v-16.2c-3.6,5.2-8.57,9.5-14.9,12.9-6.33,3.4-13.63,5.1-21.9,5.1-9.33,0-17.83-2.4-25.5-7.2-7.67-4.8-13.73-11.57-18.2-20.3-4.47-8.73-6.7-18.77-6.7-30.1s2.23-21.13,6.7-29.8ZM619.19,473.25c-2.67-4.87-6.27-8.6-10.8-11.2-4.53-2.6-9.4-3.9-14.6-3.9s-10,1.27-14.4,3.8c-4.4,2.54-7.97,6.23-10.7,11.1-2.73,4.87-4.1,10.63-4.1,17.3s1.37,12.5,4.1,17.5c2.73,5,6.33,8.83,10.8,11.5,4.47,2.67,9.23,4,14.3,4s10.07-1.3,14.6-3.9c4.53-2.6,8.13-6.33,10.8-11.2,2.67-4.87,4-10.7,4-17.5s-1.33-12.63-4-17.5Z" style="fill: #fff;"/>
      <path d="M675.69,417.45c-3.27-3.13-4.9-7.03-4.9-11.7s1.63-8.57,4.9-11.7c3.27-3.13,7.37-4.7,12.3-4.7s9.03,1.57,12.3,4.7c3.27,3.13,4.9,7.03,4.9,11.7s-1.63,8.57-4.9,11.7c-3.27,3.13-7.37,4.7-12.3,4.7s-9.03-1.57-12.3-4.7ZM701.79,435.35v110.8h-28v-110.8h28Z" style="fill: #fff;"/>
      <path d="M752.39,398.15v148h-28v-148h28Z" style="fill: #fff;"/>
      <path d="M817.89,438.55c6.33-3.33,13.57-5,21.7-5,9.46,0,18.03,2.33,25.7,7,7.67,4.67,13.73,11.3,18.2,19.9,4.47,8.6,6.7,18.57,6.7,29.9s-2.23,21.37-6.7,30.1c-4.47,8.73-10.53,15.5-18.2,20.3-7.67,4.8-16.23,7.2-25.7,7.2-8.27,0-15.5-1.63-21.7-4.9s-11.17-7.5-14.9-12.7v15.8h-28v-148h28v53.4c3.6-5.33,8.57-9.67,14.9-13ZM857.49,473.05c-2.73-4.87-6.33-8.57-10.8-11.1-4.47-2.53-9.3-3.8-14.5-3.8s-9.83,1.3-14.3,3.9c-4.47,2.6-8.07,6.37-10.8,11.3-2.73,4.93-4.1,10.73-4.1,17.4s1.37,12.47,4.1,17.4c2.73,4.93,6.33,8.7,10.8,11.3,4.47,2.6,9.23,3.9,14.3,3.9s10.03-1.33,14.5-4c4.47-2.67,8.07-6.47,10.8-11.4,2.73-4.93,4.1-10.8,4.1-17.6s-1.37-12.43-4.1-17.3Z" style="fill: #fff;"/>
      <path d="M933.59,398.15v148h-28v-148h28Z" style="fill: #fff;"/>
      <path d="M976.59,540.85c-8.53-4.73-15.23-11.43-20.1-20.1-4.87-8.67-7.3-18.67-7.3-30s2.5-21.33,7.5-30c5-8.67,11.83-15.37,20.5-20.1,8.67-4.73,18.33-7.1,29-7.1s20.33,2.37,29,7.1c8.67,4.73,15.5,11.43,20.5,20.1,5,8.67,7.5,18.67,7.5,30s-2.57,21.33-7.7,30c-5.13,8.67-12.07,15.37-20.8,20.1-8.73,4.73-18.5,7.1-29.3,7.1s-20.27-2.37-28.8-7.1ZM1019.69,519.85c4.47-2.47,8.03-6.17,10.7-11.1,2.67-4.93,4-10.93,4-18,0-10.53-2.77-18.63-8.3-24.3-5.53-5.67-12.3-8.5-20.3-8.5s-14.7,2.83-20.1,8.5c-5.4,5.67-8.1,13.77-8.1,24.3s2.63,18.63,7.9,24.3c5.27,5.67,11.9,8.5,19.9,8.5,5.07,0,9.83-1.23,14.3-3.7Z" style="fill: #fff;"/>
      <path d="M1139.98,546.15l-22.8-34.4-20.2,34.4h-30l36.2-55.6-36.6-55.2h31.6l22.6,34.2,20.4-34.2h30l-36.4,55.2,36.8,55.6h-31.6Z" style="fill: #fff;"/>
    </g>
  </g>
</svg>