<svg xmlns="http://www.w3.org/2000/svg" width="41.9" height="41.829" viewBox="0 0 41.9 41.829"><g transform="translate(-158.4 4)"><g transform="translate(158.9 -3.5)"><path d="M2.559.5H39.341A2.061,2.061,0,0,1,41.4,2.559V39.27a2.061,2.061,0,0,1-2.059,2.059H2.559A2.061,2.061,0,0,1,.5,39.27V2.559A2.061,2.061,0,0,1,2.559.5Z" transform="translate(-0.5 -0.5)" fill="none" stroke="black" stroke-miterlimit="10" stroke-width="1" fill-rule="evenodd"/><path d="M37.78,41.079H31.389V26.026H27.2V20.2h4.331v-5.61A5.986,5.986,0,0,1,37.851,8.7H43.39v5.61H39.626c-1.7,0-1.775.213-1.775,1.633v4.331H43.39L42.751,26.1H37.709V41.079Z" transform="translate(-8.241 -2.877)" fill="black" fill-rule="evenodd"/></g></g></svg>
