<svg xmlns="http://www.w3.org/2000/svg" width="53.898" height="37.974" viewBox="0 0 53.898 37.974"><path d="M52.765,5.941a6.821,6.821,0,0,0-4.777-4.808C43.792,0,26.949,0,26.949,0S10.106,0,5.88,1.133A6.769,6.769,0,0,0,1.1,5.941C0,10.167,0,18.987,0,18.987s0,8.82,1.133,13.046A6.821,6.821,0,0,0,5.91,36.841c4.2,1.133,21.039,1.133,21.039,1.133s16.843,0,21.069-1.133A6.769,6.769,0,0,0,52.8,32.033c1.1-4.226,1.1-13.046,1.1-13.046S53.9,10.167,52.765,5.941ZM21.437,27.01V10.963l14.087,8.024Z" fill="black"/></svg>
