<?xml version="1.0" encoding="UTF-8"?>
<svg id="b" data-name="Layer 2" xmlns="http://www.w3.org/2000/svg" viewBox="0 0 414.03 285.54">
  <g id="c" data-name="Layer 1">
    <path d="M310.92,87.11c-2.54,2.35-4.65,4.46-4.65,4.46-1.39.02-8.44,0-10.09,0h-7.8s-173.45-.02-173.45-.02c-1.14.01-4.28,0-5.04,0L17.85,12.79,3.16.03,159.18,0c4.47,0,6.07,3.03,8.65,5.29l11.99,10.5,5.17,4.56,19.45,17.29c.85.75,2.44,2.01,3.34,1.82.9-.2,2.48-1.31,3.3-2.05l9.89-8.91,4.81-4.17,9.77-8.22,10.87-9.57c2.52-2.22,6.1-6.21,10.06-6.49l134.73-.03,9.07.11,9.04-.1c.53,0,2.05,0,2.52,0,.05,0-5.22,4.61-5.22,4.61l-95.69,82.46Z" style="fill: #02ace9;"/>
    <path d="M254.22,285.34l-13.72-.03-8.14-.05-12.94.08-20.93-.03-14.1-.14-12.84.12-10.3-.03-11.5-.06-10.58.02-12.01.14h-35.8s-11.68-.06-11.68-.06l-13.49-.03-23.84-.06c-6.31-.02-11.97,1-18.59-.52l9.84-8.59,10.01-8.76,17.38-14.81,6.29-5.68,12.17-10.37,20.4-17.81,6.36-5.65,6.78-6,12.87-11.16,13.02-10.84,12.48-10.97c1.37-1.21,3.4-.6,4.55.46l4.8,4.4,11.62,10.1,10.89,9.34,17.78,15.19,6.84,5.72,5.98-5.17,12.85-11.1,16.47-14.19,15.25-13.41c.95-.84,2.5-2.24,3.51-2.28s2.51,1.48,3.51,2.34l30.21,25.98,8.28,7.42,7.36,6.2,14.87,12.85,14.51,12.54,6,5.11c2.44,2.07,4.6,3.67,6.73,6.04l36.23,31.34,1.55.97c.32.2-.99,1.13-1.47,1.54h-20.76s-11.42-.26-11.42-.26l-19.15-.03-13.58-.03-25.2.13-25.15.16-20.23-.09Z" style="fill: #fff;"/>
    <path d="M.02,243.25v-4.25l.09-12.46v-11.88s.01-11.25.01-11.25v-12s.02-12,.02-12v-11.46s.02-11.89.02-11.89v-11.25s0-12.01,0-12.01v-11.34s0-11.89,0-11.89v-12.01s0-11.25,0-11.25l-.18-13.5.04-9.71.11-12.06-.12-8.75c1.69,1.48,3.22,2.6,4.69,3.92l8.28,7.37,12.75,11.28,8.62,7.16,8.2,7.53,12.01,10.51,17.28,14.87,15.43,13.82c1.4,1.25,4.85,4.07,4.85,4.07,0,0-.06,1.24-.06,2.76l.06,54.46c-1.57,2.66-4.04,4.66-6.36,6.62l-22.35,18.83-7.33,6.3-5.14,4.5-14.8,12.93-8.81,7.74L.02,260.3v-17.04Z" style="fill: #02ace9;"/>
    <path d="M413.8,242.94l.09-6.55v-9.85s0-11.88,0-11.88v-11.25s-.01-12-.01-12v-12s-.02-11.46-.02-11.46v-11.89s-.01-11.25-.01-11.25v-12.01s0-11.34,0-11.34v-11.89s0-12.01,0-12.01v-11.25s.17-13.5.17-13.5l-.04-9.71-.11-12.06.03-8.75c-1.2,1.2-3.12,2.6-4.6,3.92l-8.28,7.37-12.75,11.28-8.62,7.16-8.2,7.53-12.01,10.51-17.28,14.87-15.43,13.82c-1.4,1.25-4.85,4.07-4.85,4.07,0,0,.06,1.24.06,2.76l-.06,54.46c1.57,2.66,4.04,4.66,6.36,6.62l22.35,18.83,7.33,6.3,5.14,4.5,14.8,12.93,8.81,7.74,27.25,24.45c0-6.85.39-12.22-.09-18.44Z" style="fill: #d9ecf7;"/>
    <line x1="406.61" y1="4.66" x2="310.92" y2="87.11" style="fill: #001b5f;"/>
    <line x1="109.61" y1="91.32" x2="17.85" y2="12.79" style="fill: #001b5f;"/>
    <polygon points="109.89 91.55 306.27 91.57 207.02 174.91 109.89 91.55" style="fill: #0274a5;"/>
  </g>
</svg>